<?xml version="1.0" standalone="no"?>
<!DOCTYPE svg PUBLIC "-//W3C//DTD SVG 20010904//EN"
 "http://www.w3.org/TR/2001/REC-SVG-20010904/DTD/svg10.dtd">
<svg version="1.0" xmlns="http://www.w3.org/2000/svg"
 width="900.000000pt" height="900.000000pt" viewBox="0 0 900.000000 900.000000"
 preserveAspectRatio="xMidYMid meet">
<metadata>
Created by potrace 1.14, written by Peter Selinger 2001-2017
</metadata>
<g transform="translate(0.000000,900.000000) scale(0.100000,-0.100000)"
fill="#000000" stroke="none">
<path d="M4385 8816 c-33 -14 -114 -30 -240 -46 -227 -30 -444 -77 -671 -146
-89 -27 -300 -102 -354 -127 -334 -148 -412 -187 -600 -300 -615 -367 -1192
-948 -1538 -1549 -154 -266 -360 -742 -422 -974 -56 -208 -110 -438 -124 -529
-54 -347 -59 -387 -63 -599 -6 -248 3 -355 63 -781 48 -342 165 -737 319
-1080 362 -809 930 -1462 1684 -1936 146 -92 506 -275 666 -338 330 -131 562
-193 915 -245 19 -3 118 -15 220 -26 130 -15 192 -26 210 -38 22 -15 58 -17
305 -17 240 0 284 2 310 16 17 9 64 20 105 23 388 35 634 82 916 174 480 158
868 397 1204 744 80 82 297 305 482 495 213 219 345 361 358 388 27 57 26 110
-3 139 -47 47 -209 60 -316 27 -146 -45 -340 -188 -626 -461 -313 -299 -481
-414 -745 -512 -308 -114 -609 -135 -1025 -72 -279 42 -648 184 -764 292 -43
40 -51 54 -51 84 0 29 7 42 39 71 22 20 55 38 73 41 18 3 177 7 353 10 329 4
437 14 650 57 261 54 440 162 488 295 22 61 22 160 1 235 -27 97 -27 97 -211
60 -87 -17 -196 -36 -243 -43 -102 -14 -487 -14 -550 0 -25 5 -170 42 -322 81
-263 67 -355 85 -563 111 -460 57 -871 6 -1204 -151 -121 -57 -267 -152 -366
-238 -38 -34 -75 -61 -80 -61 -6 0 -101 91 -211 203 -354 358 -528 590 -720
962 -220 424 -367 874 -428 1305 -34 240 -38 307 -39 560 0 269 7 372 45 600
131 801 540 1473 1198 1968 52 39 106 80 120 90 55 42 241 163 350 227 99 59
380 205 394 205 2 0 37 15 78 33 40 19 98 43 128 54 30 12 75 29 100 38 104
39 330 107 440 133 25 6 65 15 90 21 426 100 1048 123 1518 55 684 -98 1352
-370 1895 -771 61 -46 116 -83 122 -83 12 0 -126 136 -261 256 -499 443 -1129
772 -1784 933 -199 49 -286 64 -539 97 -107 13 -201 30 -209 37 -22 18 -526
21 -567 3z"/>
<path d="M6745 7248 c-268 -19 -626 -68 -923 -128 -208 -41 -172 -58 86 -41
470 31 1230 24 1559 -14 182 -22 435 -74 583 -121 148 -46 154 -91 43 -310
-194 -383 -395 -677 -608 -889 -120 -121 -183 -166 -450 -320 -93 -54 -202
-120 -241 -146 -421 -282 -653 -637 -789 -1203 -44 -182 -107 -495 -134 -661
-12 -71 -26 -157 -31 -190 -27 -164 -40 -276 -50 -450 -13 -208 -6 -408 15
-425 19 -16 113 7 125 30 6 11 15 110 20 220 17 334 36 487 105 860 40 211 57
289 111 504 101 399 310 801 538 1031 117 118 180 164 366 268 373 208 616
392 827 627 222 246 361 466 496 785 80 189 81 195 61 245 -30 74 -140 127
-449 216 -336 96 -847 142 -1260 112z"/>
<path d="M4965 6826 c-19 -29 -10 -54 21 -62 30 -8 54 11 54 40 0 47 -49 62
-75 22z"/>
<path d="M4877 6722 c-30 -33 -15 -72 28 -72 42 0 59 44 29 74 -20 21 -37 20
-57 -2z"/>
<path d="M5762 6717 c-5 -7 -15 -39 -22 -72 -16 -76 -40 -123 -88 -175 -41
-42 -70 -54 -57 -22 4 9 10 27 12 40 7 31 -22 29 -105 -9 -109 -50 -170 -69
-266 -79 -98 -12 -120 -22 -86 -40 17 -9 155 -29 208 -30 8 0 21 -18 29 -39 9
-22 22 -42 29 -45 22 -8 183 42 244 76 32 18 99 75 159 136 90 91 107 105 135
104 25 -1 490 -56 654 -78 57 -7 54 -25 -10 -62 -76 -42 -150 -113 -202 -190
-66 -100 -66 -100 -186 -107 -121 -6 -258 -27 -380 -56 -105 -25 -271 -82
-300 -102 -31 -22 -8 -31 48 -18 195 43 539 59 782 36 l75 -7 37 80 c22 47 58
102 89 136 104 114 317 230 559 306 188 58 202 64 204 75 1 11 -7 12 -369 44
-132 12 -310 28 -395 36 -85 8 -186 17 -225 20 -38 3 -117 10 -175 15 -58 5
-163 14 -235 20 -71 6 -135 13 -142 15 -6 2 -16 -2 -21 -8z"/>
<path d="M4682 6570 c-33 -20 -71 -87 -72 -124 0 -41 41 -106 81 -126 78 -40
157 -15 197 63 31 60 24 115 -23 165 -29 32 -39 36 -91 39 -47 3 -66 0 -92
-17z"/>
<path d="M4548 6221 c-46 -41 -45 -92 1 -133 28 -25 39 -29 70 -24 90 14 112
129 31 171 -42 22 -66 19 -102 -14z"/>
<path d="M4275 6195 c-102 -32 -478 -90 -715 -110 -86 -7 -221 -45 -295 -82
-92 -47 -337 -227 -522 -385 -149 -127 -543 -522 -691 -691 -184 -212 -313
-393 -353 -496 -18 -46 -22 -76 -22 -171 0 -139 27 -237 96 -343 87 -136 269
-298 473 -423 169 -104 303 -164 669 -299 301 -112 411 -171 529 -284 79 -76
138 -163 186 -274 18 -44 43 -85 55 -93 27 -18 111 -8 119 13 9 23 -31 204
-63 282 -108 265 -344 440 -781 579 -355 112 -675 285 -840 452 -125 127 -180
242 -180 374 0 107 46 229 125 333 56 74 720 748 868 881 350 314 479 390 702
411 258 25 404 85 659 273 25 18 45 41 46 51 0 20 -9 20 -65 2z"/>
<path d="M4423 5906 c-61 -53 -21 -156 62 -156 21 0 44 9 62 24 61 53 21 156
-62 156 -21 0 -44 -9 -62 -24z"/>
<path d="M4332 5585 c-38 -32 -48 -72 -29 -116 20 -48 39 -61 92 -61 37 -1 51
4 75 27 24 23 30 37 30 73 0 89 -100 135 -168 77z"/>
<path d="M4299 5191 c-23 -24 -29 -38 -29 -73 0 -54 19 -83 65 -98 104 -34
183 94 106 171 -23 23 -38 29 -71 29 -33 0 -48 -6 -71 -29z"/>
<path d="M4325 4886 c-26 -21 -30 -31 -30 -74 0 -69 30 -102 92 -102 55 0 78
12 98 50 24 46 19 78 -19 116 -43 43 -95 47 -141 10z"/>
<path d="M3309 4812 c-15 -20 -53 -66 -85 -102 -202 -222 -399 -349 -631 -405
-68 -16 -73 -20 -73 -44 0 -64 116 -190 261 -284 122 -79 459 -247 495 -247
26 0 14 19 -33 57 -216 172 -478 399 -478 414 0 14 53 45 215 124 118 58 237
112 264 121 46 16 49 15 75 -3 39 -29 74 -107 140 -313 32 -102 98 -306 146
-455 116 -361 128 -399 151 -477 10 -37 27 -78 37 -90 17 -23 17 -22 11 32 -4
30 -24 152 -46 270 -21 118 -48 264 -59 323 -25 136 -78 365 -133 567 -62 231
-189 550 -218 550 -7 0 -25 -17 -39 -38z"/>
<path d="M4389 4499 c-72 -77 6 -202 105 -169 76 25 100 112 47 169 -25 26
-36 31 -76 31 -40 0 -51 -5 -76 -31z"/>
<path d="M4513 4160 c-120 -73 -55 -253 85 -237 157 18 140 257 -18 257 -19 0
-49 -9 -67 -20z"/>
<path d="M4596 3687 c-61 -58 -61 -133 0 -186 28 -25 44 -31 80 -31 83 0 134
47 134 125 0 78 -51 125 -134 125 -37 0 -51 -6 -80 -33z"/>
<path d="M4724 3310 c-12 -4 -31 -20 -42 -35 -67 -85 -11 -205 94 -205 56 0
99 22 119 60 32 62 11 146 -45 175 -31 16 -92 19 -126 5z"/>
<path d="M4720 2928 c-95 -51 -131 -170 -82 -265 58 -112 218 -139 307 -53 93
91 86 220 -17 303 -29 23 -49 30 -100 34 -53 4 -70 1 -108 -19z"/>
<path d="M7699 2356 c-70 -20 -148 -58 -224 -111 -79 -55 -262 -202 -346 -279
-30 -28 -102 -94 -160 -147 -147 -135 -179 -162 -184 -157 -3 3 23 31 57 62
97 90 343 323 427 405 42 40 102 91 134 113 32 22 57 45 54 51 -7 25 -72 47
-136 47 -53 0 -77 -6 -140 -37 -84 -40 -94 -50 -621 -588 -249 -254 -452 -446
-517 -489 -31 -20 -51 -51 -40 -63 20 -19 226 75 377 171 96 62 94 61 85 46
-28 -45 -183 -153 -300 -210 -44 -21 -116 -48 -160 -60 -122 -32 -120 -31
-104 -41 34 -21 205 -4 364 36 298 76 539 222 860 521 345 322 456 410 600
474 39 17 81 36 94 43 25 12 111 140 111 165 0 7 -11 24 -25 37 -21 22 -33 25
-92 24 -37 0 -89 -6 -114 -13z"/>
</g>
</svg>
